<svg width="90" height="90" viewBox="0 0 90 90" fill="none" xmlns="http://www.w3.org/2000/svg">
<path d="M0 10C0 4.47715 4.47715 0 10 0H80C85.5228 0 90 4.47715 90 10V80C90 85.5228 85.5228 90 80 90H10C4.47715 90 0 85.5228 0 80V10Z" fill="#E11D48"/>
<path d="M69 15H33C29.7 15 27 17.7 27 21V57C27 60.3 29.7 63 33 63H69C72.3 63 75 60.3 75 57V21C75 17.7 72.3 15 69 15ZM63 30H54V46.5C54 50.64 50.64 54 46.5 54C42.36 54 39 50.64 39 46.5C39 42.36 42.36 39 46.5 39C48.21 39 49.74 39.57 51 40.53V24H63V30ZM21 27H15V69C15 72.3 17.7 75 21 75H63V69H21V27Z" fill="white"/>
</svg>
