<?xml version="1.0" standalone="no"?>
<!DOCTYPE svg PUBLIC "-//W3C//DTD SVG 20010904//EN"
 "http://www.w3.org/TR/2001/REC-SVG-20010904/DTD/svg10.dtd">
<svg version="1.0" xmlns="http://www.w3.org/2000/svg"
 width="700.000000pt" height="700.000000pt" viewBox="0 0 700.000000 700.000000"
 preserveAspectRatio="xMidYMid meet">
<metadata>
Created by potrace 1.14, written by Peter Selinger 2001-2017
</metadata>
<g transform="translate(0.000000,700.000000) scale(0.100000,-0.100000)"
fill="#000000" stroke="none">
<path d="M0 3500 l0 -3500 3500 0 3500 0 0 3500 0 3500 -3500 0 -3500 0 0
-3500z m5990 2896 c208 -70 344 -208 407 -412 17 -56 18 -142 18 -1904 l0
-1845 -28 -80 c-53 -151 -156 -273 -289 -340 -140 -70 -11 -66 -2048 -63
l-1835 3 -66 26 c-184 71 -297 184 -368 367 l-26 67 -3 1840 c-2 1811 -2 1841
18 1918 22 88 69 179 125 245 78 91 222 170 348 191 29 5 871 8 1872 7 1747
-1 1822 -2 1875 -20z m-4820 -3186 l0 -2040 2040 0 2040 0 0 -295 0 -295
-2092 2 c-2011 3 -2095 4 -2148 22 -203 68 -338 203 -406 406 -18 53 -19 137
-22 2148 l-2 2092 295 0 295 0 0 -2040z"/>
<path d="M4080 4739 l0 -801 -32 21 c-120 79 -222 112 -368 118 -148 6 -234
-11 -360 -73 -80 -40 -110 -62 -186 -138 -76 -76 -98 -106 -138 -186 -55 -113
-76 -201 -76 -331 0 -311 197 -583 499 -686 110 -38 283 -44 402 -14 247 62
439 241 521 486 l23 70 5 875 5 875 438 3 437 2 0 290 0 290 -585 0 -585 0 0
-801z"/>
</g>
</svg>
